<?xml version="1.0" encoding="utf-8"?>
<!-- Generator: Adobe Illustrator 17.1.0, SVG Export Plug-In . SVG Version: 6.00 Build 0)  -->
<!DOCTYPE svg PUBLIC "-//W3C//DTD SVG 1.1//EN" "http://www.w3.org/Graphics/SVG/1.1/DTD/svg11.dtd">
<svg version="1.1" xmlns="http://www.w3.org/2000/svg" xmlns:xlink="http://www.w3.org/1999/xlink" x="0px" y="0px"
	 viewBox="0 0 639.1 366.7" enable-background="new 0 0 639.1 366.7" xml:space="preserve">
<g id="temp">
	<g opacity="0.4">
		<g>
			<path fill="#808285" d="M301.3,309.4c-118.9-3.9-208-42.7-243-95c-27.8-41.6-14.9-83,21.7-115.6c28-25,68.7-43.7,113.9-55.4
				l8.6,3.8c-41.3,11.2-77.4,28.7-100.8,51.6c-29.8,29.3-37,65.2-8.6,100.1c34.4,42.3,111.6,72.5,210.9,75.5L301.3,309.4z"/>
			<g>
				<polygon fill="#808285" points="285.6,253 381.8,286.4 285.6,331.7 				"/>
			</g>
		</g>
		<path fill="#808285" d="M420.9,299.7l-16.6-32.8c66.6-12.3,115.4-37.4,140.4-68.1c28.4-34.9,21.3-70.9-8.6-100.1
			c-23.4-23-59.5-40.4-100.8-51.6l8.6-3.8c45.2,11.8,85.9,30.5,113.9,55.4c36.6,32.7,49.5,74,21.7,115.6
			C554.4,252.2,499.4,283.8,420.9,299.7z"/>
	</g>
</g>
<g id="Layer_2">
</g>
<g id="Layer_5">
</g>
<g id="_x33_60">
	<g opacity="0.4">
		<path fill="#A7A9AC" d="M173.9,190.2c0-3.3,0.7-5.5,2.1-6.7c1.4-1.2,3.8-1.8,7.3-1.8c4.1,0,6.8,0.6,8.3,1.8
			c1.5,1.2,2.2,3.1,2.2,5.8c0,4.6,1.9,8.4,5.8,11.7c3.9,3.2,9.5,4.8,16.7,4.8c7.9,0,13.7-1.9,17.5-5.6c3.8-3.7,5.6-9.7,5.6-17.9
			v-3.6c0-13.8-7.8-20.7-23.3-20.7c-4.3,0-6.5-2.6-6.5-7.9c0-5.4,2.2-8.1,6.5-8.1c6.5,0,11.4-1.5,14.8-4.4c3.4-2.9,5.1-8.4,5.1-16.5
			c0-13-6.4-19.5-19.1-19.5c-7.1,0-12.2,1.5-15.3,4.4c-3.1,2.9-4.6,6.6-4.6,11c0,5.4-3.2,8.1-9.6,8.1c-4.3,0-7.2-0.6-8.5-1.9
			c-1.3-1.3-2-3.7-2-7.4c0-3.4,0.6-6.8,1.9-10.2c1.3-3.4,3.3-6.8,6.2-10.2c2.9-3.4,7.1-6.2,12.6-8.3c5.5-2.1,12-3.2,19.4-3.2
			c25.6,0,38.4,11.3,38.4,33.9c0,7.7-1.4,14.3-4.1,19.9c-2.7,5.5-6.5,9.5-11.2,11.7c13,5,19.5,14.8,19.5,29.3v3.6
			c0,14.3-4,24.7-12,31.3c-8,6.6-18.5,9.9-31.5,9.9c-13.8,0-24.2-3.4-31.4-10.2C177.5,206.5,173.9,198.8,173.9,190.2z"/>
		<path fill="#A7A9AC" d="M276.1,181.3v-55.2c0-14.5,4-25.2,11.9-32c8-6.8,18.6-10.2,31.8-10.2c13.4,0,23.7,3.4,31,10.1
			c7.3,6.8,11,14.6,11,23.6c0,3.2-0.8,5.4-2.3,6.6c-1.5,1.3-3.9,1.9-7.3,1.9c-7,0-10.5-2.5-10.5-7.6c0-5.1-2.1-9.1-6.4-12.2
			c-4.3-3.1-9.6-4.6-15.9-4.6c-15.5,0-23.3,8.2-23.3,24.5v23.9c5.9-7.1,14.8-10.7,26.7-10.7c26,0,39,12.9,39,38.6v3.4
			c0,14.5-3.9,25.2-11.7,32c-7.8,6.8-18.1,10.2-31.1,10.2c-13,0-23.4-3.4-31.2-10.2C280,206.5,276.1,195.8,276.1,181.3z
			 M296.2,182.2c0,16.2,7.6,24.3,22.9,24.3c15,0,22.5-8.1,22.5-24.3V179c0-15.8-7.6-23.7-22.7-23.7c-15.2,0-22.7,7.3-22.7,22V182.2z
			"/>
		<path fill="#A7A9AC" d="M378.9,181.3v-55.2c0-14.5,3.9-25.2,11.7-32c7.8-6.8,18.2-10.2,31.4-10.2c13.2,0,23.7,3.4,31.5,10.2
			c7.8,6.8,11.7,17.5,11.7,32v55.2c0,14.5-3.9,25.2-11.7,32c-7.8,6.8-18.3,10.2-31.5,10.2c-13.2,0-23.7-3.4-31.4-10.2
			C382.7,206.5,378.9,195.8,378.9,181.3z M399.1,181.3c0,16.3,7.6,24.5,22.9,24.5c7.3,0,13-2,17-6.1c4-4,6-10.2,6-18.4v-55.2
			c0-8.2-2-14.3-6-18.4c-4-4-9.6-6.1-17-6.1c-15.3,0-22.9,8.2-22.9,24.5V181.3z"/>
	</g>
</g>
<g id="mouse">
</g>
</svg>
