<?xml version="1.0" encoding="utf-8"?>
<!-- Generator: Adobe Illustrator 17.1.0, SVG Export Plug-In . SVG Version: 6.00 Build 0)  -->
<!DOCTYPE svg PUBLIC "-//W3C//DTD SVG 1.1//EN" "http://www.w3.org/Graphics/SVG/1.1/DTD/svg11.dtd">
<svg version="1.1" xmlns="http://www.w3.org/2000/svg" xmlns:xlink="http://www.w3.org/1999/xlink" x="0px" y="0px"
	 viewBox="0 0 1817.4 635.9" enable-background="new 0 0 1817.4 635.9" xml:space="preserve">
<g id="temp">
</g>
<g id="Layer_2">
</g>
<g id="Layer_5">
	<g>
		<path d="M236.8,481.8l22.2,58.8l22.2-58.8h16.6v78.7h-13.8V510l-18.4,50.5h-13.3L233.9,510v50.5h-13.8v-78.7H236.8z"/>
		<path d="M356.1,562c-12.4,0-22.2-3.8-29.4-11.5c-7.2-7.7-10.9-17.5-10.9-29.4c0-12,3.6-21.8,10.9-29.4
			c7.2-7.7,17.1-11.5,29.4-11.5c12.3,0,22.1,3.8,29.4,11.5c7.3,7.7,10.9,17.5,10.9,29.4c0,12-3.6,21.8-10.9,29.4
			C378.3,558.2,368.5,562,356.1,562z M344.6,547.6c3.4,1.6,7.3,2.4,11.6,2.4c4.3,0,8.2-0.8,11.6-2.4c3.4-1.6,6.1-3.7,8.2-6.4
			c2.1-2.7,3.6-5.7,4.7-9.2c1.1-3.4,1.6-7.1,1.6-10.9c0-3.8-0.5-7.5-1.6-10.9c-1.1-3.4-2.6-6.5-4.7-9.2c-2.1-2.7-4.8-4.9-8.2-6.4
			c-3.4-1.6-7.3-2.4-11.6-2.4c-4.3,0-8.2,0.8-11.6,2.4c-3.4,1.6-6.1,3.7-8.2,6.4c-2.1,2.7-3.6,5.8-4.7,9.2c-1.1,3.4-1.6,7-1.6,10.9
			c0,3.9,0.5,7.5,1.6,10.9c1.1,3.4,2.6,6.5,4.7,9.2C338.4,543.9,341.2,546.1,344.6,547.6z"/>
		<path d="M485.4,481.8v66.7h10.9V578h-13.8v-17.5h-60.7V578H408v-29.5h10c5.5-8.6,9.3-22.3,11.4-41.1c0.9-8.2,1.4-16.7,1.5-25.5
			H485.4z M433.5,548.5h38.1v-54.7h-27.7c0,7.8-0.9,17-2.7,27.7C439.5,532.2,436.9,541.2,433.5,548.5z"/>
		<path d="M545,550c8.7,0,16.6-3,23.7-8.9l8.3,8.7c-3.3,3.5-7.5,6.4-12.9,8.7c-5.3,2.3-11.7,3.5-19.1,3.5
			c-11.4,0-20.4-3.8-27.1-11.5c-6.7-7.7-10.1-17.5-10.1-29.4c0-12,3.4-21.8,10.1-29.4c6.7-7.7,15.7-11.5,27.1-11.5
			c11.8,0,21,4.1,27.6,12.4c6.7,8.3,9.8,20.2,9.4,35.7h-59.4c0.4,6,2.6,11.1,6.6,15.3C533.2,547.9,538.5,550,545,550z M522.7,515.5
			h44.6c-0.2-3-0.8-5.7-1.7-8.3c-0.9-2.6-2.2-5-3.8-7.4c-1.7-2.3-3.9-4.2-6.8-5.6c-2.9-1.4-6.2-2.1-9.9-2.1c-3.7,0-7,0.7-9.9,2.1
			c-2.9,1.4-5.1,3.2-6.8,5.5c-1.7,2.3-3,4.8-3.9,7.4C523.5,509.9,522.9,512.6,522.7,515.5z"/>
		<path d="M605.2,481.8h61.1v78.7h-13.8v-66.7H619v33.8c0,3.7-0.2,7.1-0.6,10.2c-0.4,3.1-0.9,5.7-1.6,7.9c-0.7,2.2-1.5,4.1-2.4,5.8
			c-0.9,1.7-1.9,3.1-3.1,4.1c-1.1,1-2.3,1.9-3.4,2.6c-1.2,0.7-2.4,1.3-3.6,1.6c-1.2,0.3-2.4,0.6-3.5,0.7c-1.1,0.1-2.2,0.2-3.3,0.2
			c-1.1,0-2-0.1-2.8-0.1c-0.4-0.1-0.8-0.1-0.9-0.1v-12c1.1,0.1,2.1,0.1,3-0.1c0.9-0.2,1.9-0.6,3-1.4c1.1-0.8,2.1-1.9,2.8-3.3
			c0.8-1.4,1.4-3.5,1.9-6.3c0.5-2.7,0.8-6,0.8-9.8V481.8z"/>
		<path fill="#009444" d="M799,560.5l51.6-120H869l-51.6,120H799z"/>
		<path d="M687.3,481.8h13.8v25.9h18.4c4.3,0,8.1,0.7,11.4,2.2c3.3,1.4,6,3.4,8,5.9c2,2.5,3.5,5.3,4.5,8.4c1,3.1,1.5,6.4,1.5,9.9
			c0,3.5-0.5,6.8-1.5,9.9c-1,3.1-2.5,5.9-4.5,8.4c-2,2.5-4.7,4.5-8,5.9c-3.3,1.4-7.1,2.2-11.4,2.2h-32.1V481.8z M701.1,548.5h18.4
			c4,0,6.9-1.4,8.8-4.2c1.9-2.8,2.8-6.2,2.8-10.1c0-3.9-0.9-7.3-2.8-10.1c-1.9-2.8-4.8-4.2-8.8-4.2h-18.4V548.5z"/>
		<path fill="#009444" d="M931.9,560.5v-78.7h13.8v11c1.3-3.6,3.5-6.6,6.8-9c3.3-2.4,7.2-3.6,12-3.6c12.4,0,21,5,25.8,15.1
			c0.9-1.8,2-3.5,3.2-5.1c1.2-1.6,2.8-3.2,4.6-4.8c1.8-1.6,4-2.8,6.5-3.8c2.5-1,5.2-1.4,8.2-1.4c9.8,0,17.1,3,22.1,9.1
			c5,6.1,7.5,15,7.5,26.9v44.3h-13.8v-44.3c0-7.7-1.4-13.6-4.3-17.7c-2.9-4.2-7.2-6.2-12.9-6.2c-5.7,0-10,2.1-12.9,6.2
			c-2.9,4.2-4.3,10.1-4.3,17.7v44.3h-13.8v-44.3c0-7.7-1.4-13.6-4.3-17.7c-2.9-4.2-7.2-6.2-12.9-6.2c-5.7,0-10,2.1-12.9,6.2
			c-2.9,4.2-4.3,10.1-4.3,17.7v44.3H931.9z"/>
		<path fill="#009444" d="M1100.7,562c-12.4,0-22.2-3.8-29.4-11.5c-7.2-7.7-10.9-17.5-10.9-29.4c0-12,3.6-21.8,10.9-29.4
			c7.2-7.7,17.1-11.5,29.4-11.5c12.3,0,22.1,3.8,29.4,11.5c7.3,7.7,10.9,17.5,10.9,29.4c0,12-3.6,21.8-10.9,29.4
			C1122.9,558.2,1113.1,562,1100.7,562z M1089.1,547.6c3.4,1.6,7.3,2.4,11.6,2.4c4.3,0,8.2-0.8,11.6-2.4c3.4-1.6,6.1-3.7,8.2-6.4
			c2.1-2.7,3.6-5.7,4.7-9.2c1.1-3.4,1.6-7.1,1.6-10.9c0-3.8-0.5-7.5-1.6-10.9c-1.1-3.4-2.6-6.5-4.7-9.2c-2.1-2.7-4.8-4.9-8.2-6.4
			c-3.4-1.6-7.3-2.4-11.6-2.4c-4.3,0-8.2,0.8-11.6,2.4c-3.4,1.6-6.1,3.7-8.2,6.4c-2.1,2.7-3.6,5.8-4.7,9.2c-1.1,3.4-1.6,7-1.6,10.9
			c0,3.9,0.5,7.5,1.6,10.9c1.1,3.4,2.6,6.5,4.7,9.2C1083,543.9,1085.7,546.1,1089.1,547.6z"/>
		<path fill="#009444" d="M1233.6,560.5h-13.8v-15.6c-2.6,5.6-6.4,9.8-11.4,12.8c-5,2.9-10.2,4.4-15.6,4.4c-7.5,0-14-1.8-19.7-5.6
			c-5.6-3.7-9.9-8.6-12.7-14.8c-2.8-6.1-4.3-13-4.3-20.6c0-7.6,1.4-14.5,4.3-20.6c2.8-6.1,7.1-11,12.7-14.8
			c5.6-3.7,12.2-5.6,19.7-5.6c5.3,0,10.5,1.5,15.6,4.4c5,2.9,8.8,7.2,11.4,12.8v-54.6h13.8V560.5z M1206.1,494.8
			c-3.3-1.7-6.9-2.5-11.1-2.5c-4.1,0-7.8,0.8-11.1,2.5c-3.3,1.7-5.9,3.9-7.8,6.7c-1.9,2.8-3.4,5.9-4.4,9.2c-1,3.4-1.5,6.8-1.5,10.4
			c0,3.6,0.5,7.1,1.5,10.4c1,3.3,2.5,6.4,4.4,9.2c1.9,2.8,4.5,5,7.8,6.7c3.3,1.7,6.9,2.5,11.1,2.5c4.1,0,7.8-0.8,11.1-2.5
			c3.3-1.7,5.9-3.9,7.8-6.7c1.9-2.8,3.4-5.9,4.4-9.2c1-3.3,1.5-6.8,1.5-10.4c0-3.6-0.5-7-1.5-10.4c-1-3.4-2.5-6.4-4.4-9.2
			C1212,498.7,1209.4,496.5,1206.1,494.8z"/>
		<path fill="#009444" d="M1288.9,550c8.7,0,16.6-3,23.7-8.9l8.3,8.7c-3.3,3.5-7.5,6.4-12.9,8.7c-5.3,2.3-11.7,3.5-19.1,3.5
			c-11.4,0-20.4-3.8-27.1-11.5c-6.7-7.7-10.1-17.5-10.1-29.4c0-12,3.4-21.8,10.1-29.4c6.7-7.7,15.7-11.5,27.1-11.5
			c11.8,0,21,4.1,27.6,12.4c6.7,8.3,9.8,20.2,9.4,35.7h-59.4c0.4,6,2.6,11.1,6.6,15.3C1277.2,547.9,1282.4,550,1288.9,550z
			 M1266.6,515.5h44.6c-0.2-3-0.8-5.7-1.7-8.3c-0.9-2.6-2.2-5-3.8-7.4c-1.7-2.3-3.9-4.2-6.8-5.6c-2.9-1.4-6.2-2.1-9.9-2.1
			c-3.7,0-7,0.7-9.9,2.1c-2.9,1.4-5.1,3.2-6.8,5.5c-1.7,2.3-3,4.8-3.9,7.4C1267.4,509.9,1266.8,512.6,1266.6,515.5z"/>
		<path fill="#009444" d="M1344.1,538.7v-95.9h13.8v95.9c0,1.6,0,2.9,0.1,3.8c0.1,0.9,0.3,1.9,0.6,3c0.3,1.1,0.9,1.8,1.7,2.3
			c0.8,0.5,1.8,0.7,3.1,0.7h2.6v12h-4.1c-3.2,0-5.9-0.4-8.1-1.2c-2.2-0.8-4-1.9-5.2-3.1c-1.2-1.2-2.2-2.9-2.9-5
			c-0.7-2.1-1.1-4-1.3-5.8C1344.2,543.5,1344.1,541.3,1344.1,538.7z"/>
	</g>
	<path d="M117.8,231.9h189.7v45.2H117.8v131.5h201.4v45.2H66.9V63.4h249.7v45.2H117.8V231.9z"/>
	<path d="M425.8,277.7c-3.8,12-5.6,24.7-5.6,38.1c0,13.4,1.9,26.1,5.6,38.1c3.7,12,9.2,22.7,16.5,32.3c7.2,9.5,16.8,17.1,28.8,22.6
		c11.9,5.5,25.5,8.3,40.6,8.3c29.1,0,54.2-8.8,75.2-26.4l24,32.9c-23.5,23.8-56.6,35.7-99.2,35.7c-43.5,0-77.9-13.4-103.3-40.3
		c-25.4-26.9-38.1-61.3-38.1-103.2s12.7-76.3,38.1-103.2c25.4-26.9,59.8-40.3,103.3-40.3c42.6,0,75.7,11.9,99.2,35.7l-24,32.9
		c-21-17.6-46-26.4-75.2-26.4c-15.2,0-28.7,2.8-40.6,8.3c-11.9,5.5-21.5,13.1-28.8,22.6C435.1,254.9,429.6,265.7,425.8,277.7z"/>
	<path d="M1132.1,324.5v-42.2h112.7v42.2H1132.1z"/>
	<path d="M793.2,459.3c-43.5,0-77.9-13.4-103.3-40.3c-25.4-26.9-38.1-61.3-38.1-103.2s12.7-76.3,38.1-103.2
		c25.4-26.9,59.8-40.3,103.3-40.3c43.3,0,77.7,13.4,103.1,40.3c25.5,26.9,38.2,61.3,38.2,103.2s-12.7,76.3-38.2,103.2
		C870.8,445.8,836.4,459.3,793.2,459.3z M752.5,408.8c11.9,5.5,25.5,8.3,40.6,8.3c15.2,0,28.7-2.8,40.6-8.3
		c11.9-5.5,21.5-13,28.8-22.5c7.2-9.4,12.7-20.2,16.5-32.1c3.7-12,5.6-24.8,5.6-38.4c0-13.4-1.9-26.1-5.6-38.1
		c-3.8-12-9.2-22.7-16.5-32.3c-7.2-9.5-16.8-17.1-28.8-22.6c-11.9-5.5-25.5-8.3-40.6-8.3c-15.2,0-28.7,2.8-40.6,8.3
		c-11.9,5.5-21.5,13.1-28.8,22.6c-7.2,9.5-12.7,20.3-16.5,32.3c-3.8,12-5.6,24.7-5.6,38.1c0,13.6,1.9,26.4,5.6,38.4
		c3.7,12,9.2,22.7,16.5,32.1C731,395.7,740.6,403.2,752.5,408.8z"/>
	<g>
		<path fill="#009444" d="M1335.1,393c15.2,9.7,50.4,24.9,87.4,24.9c68.6,0,89.8-43.7,89.2-76.5c-0.6-55.2-50.4-78.9-102-78.9H1380
			v-40.1h29.7c38.8,0,88-20,88-66.8c0-31.6-20-59.5-69.2-59.5c-31.6,0-61.9,14-78.9,26.1l-14-38.8c20.6-15.2,60.7-30.3,103.2-30.3
			c77.7,0,112.9,46.1,112.9,94.1c0,40.7-24.3,75.3-72.8,92.9v1.2c48.6,9.7,88,46.1,88,101.4c0,63.1-49.2,118.4-143.9,118.4
			c-44.3,0-83.2-14-102.6-26.7L1335.1,393z"/>
	</g>
</g>
<g id="_x33_60">
</g>
<g id="mouse">
</g>
</svg>
