<?xml version="1.0" encoding="utf-8"?>
<!-- Generator: Adobe Illustrator 17.1.0, SVG Export Plug-In . SVG Version: 6.00 Build 0)  -->
<!DOCTYPE svg PUBLIC "-//W3C//DTD SVG 1.1//EN" "http://www.w3.org/Graphics/SVG/1.1/DTD/svg11.dtd">
<svg version="1.1" xmlns="http://www.w3.org/2000/svg" xmlns:xlink="http://www.w3.org/1999/xlink" x="0px" y="0px"
	 viewBox="0 0 702.6 810.6" enable-background="new 0 0 702.6 810.6" xml:space="preserve">
<g id="temp">
</g>
<g id="Layer_2">
</g>
<g id="Layer_5">
</g>
<g id="_x33_60">
</g>
<g id="mouse">
	<g opacity="0.4">
		<path fill="#A7A9AC" d="M359.5,226c12.6,3.2,22,14.6,22,28.2v67.9c0,13.6-9.4,25-22,28.2v38.8h143.7V277.9
			c0-54.6-44.2-98.8-98.8-98.8h-44.9V226z"/>
		<path fill="#A7A9AC" d="M337.5,254.2v67.9c0,8,6.5,14.6,14.6,14.6h0.4c8,0,14.6-6.5,14.6-14.6v-67.9c0-8-6.5-14.6-14.6-14.6h-0.4
			C344,239.6,337.5,246.1,337.5,254.2z"/>
		<path fill="#A7A9AC" d="M201.4,403.6v120c0,54.6,44.2,98.8,98.8,98.8h104.2c54.6,0,98.8-44.2,98.8-98.8v-120H201.4z"/>
		<path fill="#808285" d="M345,389.1v-38.8c-12.6-3.2-22-14.6-22-28.2v-67.9c0-13.6,9.4-25,22-28.2v-46.9h-44.9
			c-54.6,0-98.8,44.2-98.8,98.8v111.2H345z"/>
		<polygon fill="#808285" points="155.5,396.1 155.5,457.6 102.3,426.8 49.1,396.1 102.3,365.4 155.5,334.7 		"/>
		<polygon fill="#808285" points="547.1,396.1 547.1,334.7 600.3,365.4 653.5,396.1 600.3,426.8 547.1,457.6 		"/>
		<polygon fill="#808285" points="352.3,676.1 413.7,676.1 383,729.3 352.3,782.5 321.6,729.3 290.9,676.1 		"/>
		<polygon fill="#808285" points="352.3,134.5 290.9,134.5 321.6,81.3 352.3,28.1 383,81.3 413.7,134.5 		"/>
	</g>
</g>
</svg>
