<?xml version="1.0" encoding="utf-8"?>
<!-- Generator: Adobe Illustrator 17.1.0, SVG Export Plug-In . SVG Version: 6.00 Build 0)  -->
<!DOCTYPE svg PUBLIC "-//W3C//DTD SVG 1.1//EN" "http://www.w3.org/Graphics/SVG/1.1/DTD/svg11.dtd">
<svg version="1.1" xmlns="http://www.w3.org/2000/svg" xmlns:xlink="http://www.w3.org/1999/xlink" x="0px" y="0px"
	 viewBox="0 0 1320.5 810.6" enable-background="new 0 0 1320.5 810.6" xml:space="preserve">
<g id="temp">
</g>
<g id="Layer_2">
</g>
<g id="Layer_5">
</g>
<g id="_x33_60">
	<g opacity="0.4">
		<g>
			<path fill="#A7A9AC" d="M1089.1,754.8l-47.4-66.4C923.8,642.6,885,642.9,786.2,689c-24.3,11.4-52.1-1-62.8-19.7
				c-9.1-15.9-8.6-40,20.2-59.9c15.5-10.7,42.6-22.7,71.4-35.3c35.4-15.6,79.4-35,89.3-48.4c11.8-15.9-3.7-34.9-4.4-35.7l-0.5-0.7
				L748.1,277.3c-7.1-9.9-9.9-22-7.9-34c2-12,8.6-22.6,18.5-29.6l0.6-0.4c9.9-7.1,22-9.9,34-7.9c12,2,22.6,8.6,29.6,18.5l67.2,94
				c3.3-7.6,8.5-14.2,15.4-19.1l0.6-0.4c9.9-7.1,22-9.9,34-7.9c7.9,1.3,15.2,4.6,21.3,9.6c3.1-8.1,8.5-15.5,16.1-20.9l0.6-0.4
				c20.5-14.6,49.1-9.9,63.7,10.6l3.3,4.6c2.8-6.6,7.2-12.5,12.9-17.1l-0.1-0.1h0l2.5-1.8c0,0,0,0,0.1,0l0.1,0.1
				c9.4-5.8,20.3-7.8,31.1-5.7c11.5,2.2,21.8,8.9,28.8,18.8l43.8,60.2c70.3,90.1,79,137.8,83,198.8l43.4,63.5L1089.1,754.8z
				 M907.9,632.3c0.5,0,0.9,0,1.4,0c42,0.3,86,14.3,143.4,36.7l3,1.2l38.4,53.8l166.2-118.7l-34.7-50.7l-0.2-3
				c-3.7-60.2-10.9-102.9-78.7-189.8l-0.2-0.3l-44-60.4c-3.8-5.4-9.2-8.9-15.2-10.1c-5.3-1-10.8,0-15.5,2.9
				c-4.4,3.6-7.3,8.7-8.3,14.4c-1,6.2,0.4,12.5,4.1,17.6l51.1,71.6l-17.9,12.8l-51.1-71.5c0,0,0,0,0,0l-26-36.4
				c-7.6-10.6-22.4-13.1-33-5.5l-0.6,0.4c-10.6,7.5-13.1,22.3-5.6,32.8l62.1,87l-17.9,12.8l-62.1-86.9c0,0-0.1-0.1-0.1-0.1l-15-21
				c-3.7-5.1-9.1-8.5-15.3-9.6c-6.2-1-12.5,0.4-17.6,4.1l-0.6,0.4c-5.1,3.7-8.5,9.1-9.6,15.3c-1,6.2,0.4,12.4,4,17.5l71,99.4
				l-17.9,12.8l-70.9-99.3c0,0-0.1-0.1-0.1-0.1L805,236.6c-3.7-5.1-9.1-8.5-15.3-9.6c-6.2-1-12.5,0.4-17.6,4.1l-0.6,0.4
				c-5.1,3.7-8.5,9.1-9.6,15.3c-1,6.2,0.4,12.5,4.1,17.6L917.1,476c9.6,11.5,22.6,38.9,5,62.7c-13.4,18.1-54.6,36.2-98.1,55.5
				c-27.8,12.2-54,23.8-67.8,33.3c-8.4,5.8-21.3,17.5-13.6,30.8c5.7,10,21.3,16.9,34.4,10.7C824.1,647,864.5,632.3,907.9,632.3z"/>
			<path fill="none" stroke="#000000" stroke-width="5" stroke-miterlimit="10" d="M740.3,624.9"/>
			<g>
				<path fill="#808285" d="M692,547.8c-6.1-64.6,1.8-129.2,23.5-191.9l20.8,7.2c-20.6,59.7-28.2,121.2-22.4,182.6L692,547.8z"/>
				<g>
					<polygon fill="#808285" points="697.7,357.3 740.3,322.7 749,376.9 					"/>
				</g>
				<g>
					<polygon fill="#808285" points="675,542.3 708.4,585.9 729.5,535.2 					"/>
				</g>
			</g>
		</g>
		<g>
			<path fill="#A7A9AC" d="M421.3,793.8H173.5V712c-33.4-56.2-83.3-158.2-56.9-228.8c9.8-26.1,28.9-45,56.9-56V207
				c0-25.2,20.5-45.7,45.7-45.7h0.7c25.2,0,45.7,20.5,45.7,45.7v115.6c6.9-4.2,15-6.6,23.6-6.6h0.7c21,0,38.7,14.2,44,33.6
				c7.2-4.8,15.9-7.6,25.3-7.6h0.7c25.2,0,45.7,20.5,45.7,45.7v5.7c6-3.7,13-6,20.4-6.5v-0.1h3.2v0.1c23.3,1.6,41.2,21,41.2,45.5
				l0.7,74.4c4.8,114.2-15.8,158.1-48,210L421.3,793.8z M195.5,771.8h204.2l1.3-61.4l1.6-2.6c31.9-51.1,51-90.1,46.3-200.2l0-0.4
				l-0.7-74.7c0-13-8.8-22.9-20.7-23.7c-12.3,0.8-22,11.1-22,23.6v87.9h-22V387.6c0-13-10.6-23.6-23.6-23.6h-0.7
				c-13,0-23.6,10.6-23.6,23.6v106.8h-22V361.7c0-13-10.6-23.6-23.6-23.6h-0.7c-13,0-23.6,10.6-23.6,23.6v122h-22V207
				c0-13-10.6-23.6-23.6-23.6h-0.7c-13,0-23.6,10.6-23.6,23.6v300.1h-22v-55.9c-17.7,8.8-29.6,21.9-36.2,39.6
				C120,537,140.7,614.4,194,703.3l1.6,2.6V771.8z"/>
			<g>
				<rect x="69.2" y="194.5" fill="#808285" width="74.4" height="22"/>
				<g>
					<polygon fill="#808285" points="77.3,233 29.7,205.5 77.3,178.1 					"/>
				</g>
			</g>
			<g>
				<rect x="290.5" y="194.5" fill="#808285" width="74.4" height="22"/>
				<g>
					<polygon fill="#808285" points="356.8,178.1 404.4,205.5 356.8,233 					"/>
				</g>
			</g>
			<g>
				<rect x="208.9" y="56.3" fill="#808285" width="22" height="74.4"/>
				<g>
					<polygon fill="#808285" points="192.5,64.3 220,16.8 247.4,64.3 					"/>
				</g>
			</g>
		</g>
	</g>
</g>
<g id="mouse">
</g>
</svg>
